<?xml version="1.0" standalone="no"?>
<!DOCTYPE svg PUBLIC "-//W3C//DTD SVG 20010904//EN"
 "http://www.w3.org/TR/2001/REC-SVG-20010904/DTD/svg10.dtd">
<svg version="1.0" xmlns="http://www.w3.org/2000/svg"
 width="1024.000000pt" height="1024.000000pt" viewBox="0 0 1024.000000 1024.000000"
 preserveAspectRatio="xMidYMid meet">

<g transform="translate(0.000000,1024.000000) scale(0.100000,-0.100000)"
fill="#000000" stroke="none">
<path d="M0 5120 l0 -5120 5120 0 5120 0 0 5120 0 5120 -5120 0 -5120 0 0
-5120z m7995 400 l0 -3235 -615 -2 -615 -2 -1690 1679 c-929 923 -1691 1685
-1693 1692 -3 14 399 408 415 408 5 0 731 -718 1614 -1594 l1604 -1595 193 0
192 -1 0 2650 0 2650 -192 0 -193 0 -382 -382 -383 -383 -210 210 -210 210
467 467 468 468 615 -2 615 -3 0 -3235z m-2710 740 c930 -923 1691 -1685 1693
-1692 3 -14 -399 -408 -415 -408 -5 0 -731 717 -1613 1594 l-1605 1595 -192 0
-193 1 0 -2650 0 -2650 192 0 193 0 382 382 383 383 210 -210 210 -210 -467
-467 -468 -468 -615 2 -615 3 -3 3225 c-1 1774 0 3231 3 3238 3 9 136 12 617
12 l613 -1 1690 -1679z"/>
</g>
</svg>
