<svg id="svg" xmlns="http://www.w3.org/2000/svg" xmlns:xlink="http://www.w3.org/1999/xlink" width="400" height="400" viewBox="0, 0, 400,400"><g id="svgg"><path id="path0" d="M0.000 200.000 L 0.000 400.000 200.000 400.000 L 400.000 400.000 400.000 200.000 L 400.000 0.000 200.000 0.000 L 0.000 0.000 0.000 200.000 M184.827 94.670 C 185.465 96.349,185.216 105.927,184.516 106.627 C 184.025 107.118,176.835 107.200,134.251 107.200 C 96.136 107.200,84.448 107.312,84.080 107.680 C 83.444 108.316,83.379 185.640,84.014 186.826 C 84.420 187.584,85.369 187.600,131.334 187.600 C 167.283 187.600,178.352 187.712,178.720 188.080 C 179.390 188.750,179.390 200.050,178.720 200.720 C 178.352 201.088,167.298 201.200,131.400 201.200 C 95.502 201.200,84.448 201.312,84.080 201.680 C 83.383 202.377,83.383 291.223,84.080 291.920 C 84.448 292.288,96.184 292.400,134.466 292.400 C 182.662 292.400,184.385 292.425,184.769 293.142 C 185.416 294.350,185.199 304.743,184.513 305.429 C 183.678 306.265,69.940 306.291,69.247 305.456 C 68.775 304.888,68.551 94.726,69.021 93.965 C 69.156 93.748,92.507 93.600,126.834 93.600 L 184.420 93.600 184.827 94.670 M218.340 149.135 C 218.923 149.760,220.131 151.335,221.025 152.635 C 221.918 153.936,223.285 155.900,224.062 157.000 C 226.734 160.784,237.348 175.807,240.736 180.600 C 242.602 183.240,244.758 186.300,245.526 187.400 C 246.295 188.500,247.211 189.784,247.562 190.254 C 247.913 190.723,248.470 191.506,248.800 191.993 C 249.310 192.747,250.798 194.819,252.894 197.694 C 253.172 198.076,253.996 199.246,254.724 200.294 C 259.589 207.299,264.489 214.000,264.746 214.000 C 265.135 214.000,265.161 213.965,273.404 202.200 C 275.407 199.340,277.711 196.055,278.523 194.900 C 279.336 193.745,280.630 191.900,281.400 190.800 C 282.170 189.700,283.399 187.945,284.131 186.900 C 284.862 185.855,286.214 183.920,287.135 182.600 C 288.056 181.280,290.292 178.088,292.104 175.506 C 293.917 172.924,296.559 169.144,297.975 167.106 C 299.391 165.068,301.281 162.376,302.175 161.124 C 303.069 159.873,305.060 157.020,306.600 154.784 C 308.140 152.549,309.914 150.108,310.541 149.360 L 311.683 148.000 319.018 148.000 C 323.052 148.000,326.446 148.151,326.560 148.335 C 326.812 148.743,325.714 150.409,318.609 160.400 C 310.419 171.915,307.570 175.946,304.615 180.200 C 304.157 180.860,303.246 182.144,302.591 183.053 C 301.936 183.962,301.130 185.105,300.800 185.592 C 300.470 186.080,299.570 187.357,298.800 188.431 C 296.970 190.982,294.995 193.777,290.203 200.600 C 288.040 203.680,285.714 206.955,285.035 207.878 C 284.356 208.801,282.990 210.741,282.000 212.189 C 281.010 213.637,279.570 215.692,278.800 216.755 C 278.030 217.819,277.130 219.092,276.800 219.584 C 276.470 220.076,275.537 221.378,274.727 222.476 C 273.031 224.774,273.041 224.840,275.573 228.285 C 276.578 229.653,278.300 232.042,279.400 233.595 C 280.500 235.148,282.300 237.657,283.400 239.169 C 284.500 240.682,285.670 242.316,286.000 242.800 C 286.330 243.284,287.500 244.910,288.600 246.411 C 289.700 247.913,291.770 250.804,293.200 252.835 C 294.630 254.866,296.445 257.444,297.234 258.564 C 298.022 259.684,300.233 262.760,302.147 265.400 C 304.060 268.040,307.645 273.044,310.113 276.519 C 312.581 279.994,316.701 285.754,319.269 289.319 C 321.837 292.884,324.807 297.022,325.869 298.515 C 326.931 300.009,328.385 302.023,329.100 302.991 C 331.356 306.047,331.457 306.000,322.581 306.000 C 313.519 306.000,314.700 306.529,310.600 300.632 C 309.280 298.734,306.670 295.025,304.800 292.390 C 302.930 289.756,300.140 285.789,298.600 283.576 C 297.060 281.362,294.993 278.437,294.006 277.076 C 293.020 275.714,290.653 272.365,288.746 269.633 C 286.840 266.902,285.037 264.319,284.740 263.894 C 284.443 263.469,283.570 262.257,282.800 261.200 C 282.030 260.143,281.130 258.883,280.800 258.400 C 280.470 257.917,279.570 256.645,278.800 255.575 C 278.030 254.504,276.770 252.716,276.000 251.601 C 275.230 250.486,273.868 248.545,272.973 247.287 C 272.078 246.029,270.050 243.175,268.466 240.944 C 264.573 235.458,264.832 235.587,262.966 238.222 C 261.658 240.067,259.771 242.681,256.705 246.894 C 256.427 247.276,255.570 248.497,254.800 249.609 C 254.030 250.721,252.500 252.877,251.400 254.400 C 250.300 255.923,248.803 258.032,248.073 259.085 C 246.791 260.934,241.630 268.239,237.817 273.600 C 234.599 278.124,228.100 287.326,226.724 289.306 C 225.996 290.354,225.169 291.524,224.888 291.906 C 223.276 294.089,221.322 296.807,220.800 297.590 C 220.470 298.086,219.656 299.236,218.992 300.146 C 218.328 301.056,217.261 302.576,216.621 303.524 C 214.977 305.960,214.825 306.000,207.069 306.000 C 199.343 306.000,198.766 305.797,200.427 303.665 C 201.334 302.499,203.849 299.002,204.800 297.584 C 205.130 297.092,206.030 295.819,206.800 294.755 C 207.570 293.692,209.010 291.630,210.000 290.173 C 210.990 288.716,212.172 287.046,212.628 286.462 C 213.083 285.878,214.432 283.960,215.626 282.200 C 216.821 280.440,218.006 278.780,218.260 278.511 C 218.514 278.241,219.135 277.341,219.640 276.511 C 220.145 275.680,220.662 274.910,220.789 274.800 C 220.917 274.690,222.006 273.196,223.210 271.481 C 224.415 269.765,226.030 267.488,226.800 266.420 C 227.570 265.353,228.470 264.080,228.800 263.592 C 229.130 263.105,229.936 261.962,230.591 261.053 C 231.246 260.144,232.215 258.770,232.746 258.000 C 234.168 255.935,236.630 252.423,240.599 246.800 C 244.669 241.035,246.221 238.829,248.268 235.900 C 249.075 234.745,251.158 231.784,252.896 229.320 L 256.057 224.840 254.445 222.520 C 253.559 221.244,251.672 218.580,250.251 216.600 C 248.831 214.620,246.798 211.781,245.734 210.292 C 244.670 208.803,242.360 205.611,240.600 203.200 C 238.840 200.789,235.870 196.643,234.000 193.986 C 232.130 191.330,229.700 187.924,228.600 186.418 C 227.500 184.913,226.330 183.284,226.000 182.800 C 225.670 182.316,224.500 180.696,223.400 179.200 C 222.300 177.704,221.130 176.085,220.800 175.601 C 220.470 175.117,219.570 173.857,218.800 172.800 C 218.030 171.743,217.130 170.483,216.800 170.000 C 216.470 169.517,215.570 168.257,214.800 167.200 C 214.030 166.143,213.130 164.888,212.800 164.409 C 212.122 163.426,209.361 159.609,208.886 159.000 C 206.107 155.428,201.612 148.704,201.800 148.400 C 201.951 148.156,205.015 148.000,209.663 148.000 L 217.279 148.000 218.340 149.135 " stroke="none" fill="#333a45" fill-rule="evenodd"></path><path id="path1" d="M69.021 93.965 C 68.551 94.726,68.775 304.888,69.247 305.456 C 69.940 306.291,183.678 306.265,184.513 305.429 C 185.199 304.743,185.416 294.350,184.769 293.142 C 184.385 292.425,182.662 292.400,134.466 292.400 C 96.184 292.400,84.448 292.288,84.080 291.920 C 83.383 291.223,83.383 202.377,84.080 201.680 C 84.448 201.312,95.502 201.200,131.400 201.200 C 167.298 201.200,178.352 201.088,178.720 200.720 C 179.390 200.050,179.390 188.750,178.720 188.080 C 178.352 187.712,167.283 187.600,131.334 187.600 C 85.369 187.600,84.420 187.584,84.014 186.826 C 83.379 185.640,83.444 108.316,84.080 107.680 C 84.448 107.312,96.136 107.200,134.251 107.200 C 176.835 107.200,184.025 107.118,184.516 106.627 C 185.216 105.927,185.465 96.349,184.827 94.670 L 184.420 93.600 126.834 93.600 C 92.507 93.600,69.156 93.748,69.021 93.965 M201.800 148.400 C 201.612 148.704,206.107 155.428,208.886 159.000 C 209.361 159.609,212.122 163.426,212.800 164.409 C 213.130 164.888,214.030 166.143,214.800 167.200 C 215.570 168.257,216.470 169.517,216.800 170.000 C 217.130 170.483,218.030 171.743,218.800 172.800 C 219.570 173.857,220.470 175.117,220.800 175.601 C 221.130 176.085,222.300 177.704,223.400 179.200 C 224.500 180.696,225.670 182.316,226.000 182.800 C 226.330 183.284,227.500 184.913,228.600 186.418 C 229.700 187.924,232.130 191.330,234.000 193.986 C 235.870 196.643,238.840 200.789,240.600 203.200 C 242.360 205.611,244.670 208.803,245.734 210.292 C 246.798 211.781,248.831 214.620,250.251 216.600 C 251.672 218.580,253.559 221.244,254.445 222.520 L 256.057 224.840 252.896 229.320 C 251.158 231.784,249.075 234.745,248.268 235.900 C 246.221 238.829,244.669 241.035,240.599 246.800 C 236.630 252.423,234.168 255.935,232.746 258.000 C 232.215 258.770,231.246 260.144,230.591 261.053 C 229.936 261.962,229.130 263.105,228.800 263.592 C 228.470 264.080,227.570 265.353,226.800 266.420 C 226.030 267.488,224.415 269.765,223.210 271.481 C 222.006 273.196,220.917 274.690,220.789 274.800 C 220.662 274.910,220.145 275.680,219.640 276.511 C 219.135 277.341,218.514 278.241,218.260 278.511 C 218.006 278.780,216.821 280.440,215.626 282.200 C 214.432 283.960,213.083 285.878,212.628 286.462 C 212.172 287.046,210.990 288.716,210.000 290.173 C 209.010 291.630,207.570 293.692,206.800 294.755 C 206.030 295.819,205.130 297.092,204.800 297.584 C 203.849 299.002,201.334 302.499,200.427 303.665 C 198.766 305.797,199.343 306.000,207.069 306.000 C 214.825 306.000,214.977 305.960,216.621 303.524 C 217.261 302.576,218.328 301.056,218.992 300.146 C 219.656 299.236,220.470 298.086,220.800 297.590 C 221.322 296.807,223.276 294.089,224.888 291.906 C 225.169 291.524,225.996 290.354,226.724 289.306 C 228.100 287.326,234.599 278.124,237.817 273.600 C 241.630 268.239,246.791 260.934,248.073 259.085 C 248.803 258.032,250.300 255.923,251.400 254.400 C 252.500 252.877,254.030 250.721,254.800 249.609 C 255.570 248.497,256.427 247.276,256.705 246.894 C 259.771 242.681,261.658 240.067,262.966 238.222 C 264.832 235.587,264.573 235.458,268.466 240.944 C 270.050 243.175,272.078 246.029,272.973 247.287 C 273.868 248.545,275.230 250.486,276.000 251.601 C 276.770 252.716,278.030 254.504,278.800 255.575 C 279.570 256.645,280.470 257.917,280.800 258.400 C 281.130 258.883,282.030 260.143,282.800 261.200 C 283.570 262.257,284.443 263.469,284.740 263.894 C 285.037 264.319,286.840 266.902,288.746 269.633 C 290.653 272.365,293.020 275.714,294.006 277.076 C 294.993 278.437,297.060 281.362,298.600 283.576 C 300.140 285.789,302.930 289.756,304.800 292.390 C 306.670 295.025,309.280 298.734,310.600 300.632 C 314.700 306.529,313.519 306.000,322.581 306.000 C 331.457 306.000,331.356 306.047,329.100 302.991 C 328.385 302.023,326.931 300.009,325.869 298.515 C 324.807 297.022,321.837 292.884,319.269 289.319 C 316.701 285.754,312.581 279.994,310.113 276.519 C 307.645 273.044,304.060 268.040,302.147 265.400 C 300.233 262.760,298.022 259.684,297.234 258.564 C 296.445 257.444,294.630 254.866,293.200 252.835 C 291.770 250.804,289.700 247.913,288.600 246.411 C 287.500 244.910,286.330 243.284,286.000 242.800 C 285.670 242.316,284.500 240.682,283.400 239.169 C 282.300 237.657,280.500 235.148,279.400 233.595 C 278.300 232.042,276.578 229.653,275.573 228.285 C 273.041 224.840,273.031 224.774,274.727 222.476 C 275.537 221.378,276.470 220.076,276.800 219.584 C 277.130 219.092,278.030 217.819,278.800 216.755 C 279.570 215.692,281.010 213.637,282.000 212.189 C 282.990 210.741,284.356 208.801,285.035 207.878 C 285.714 206.955,288.040 203.680,290.203 200.600 C 294.995 193.777,296.970 190.982,298.800 188.431 C 299.570 187.357,300.470 186.080,300.800 185.592 C 301.130 185.105,301.936 183.962,302.591 183.053 C 303.246 182.144,304.157 180.860,304.615 180.200 C 307.570 175.946,310.419 171.915,318.609 160.400 C 325.714 150.409,326.812 148.743,326.560 148.335 C 326.446 148.151,323.052 148.000,319.018 148.000 L 311.683 148.000 310.541 149.360 C 309.914 150.108,308.140 152.549,306.600 154.784 C 305.060 157.020,303.069 159.873,302.175 161.124 C 301.281 162.376,299.391 165.068,297.975 167.106 C 296.559 169.144,293.917 172.924,292.104 175.506 C 290.292 178.088,288.056 181.280,287.135 182.600 C 286.214 183.920,284.862 185.855,284.131 186.900 C 283.399 187.945,282.170 189.700,281.400 190.800 C 280.630 191.900,279.336 193.745,278.523 194.900 C 277.711 196.055,275.407 199.340,273.404 202.200 C 265.161 213.965,265.135 214.000,264.746 214.000 C 264.489 214.000,259.589 207.299,254.724 200.294 C 253.996 199.246,253.172 198.076,252.894 197.694 C 250.798 194.819,249.310 192.747,248.800 191.993 C 248.470 191.506,247.913 190.723,247.562 190.254 C 247.211 189.784,246.295 188.500,245.526 187.400 C 244.758 186.300,242.602 183.240,240.736 180.600 C 237.348 175.807,226.734 160.784,224.062 157.000 C 223.285 155.900,221.918 153.936,221.025 152.635 C 220.131 151.335,218.923 149.760,218.340 149.135 L 217.279 148.000 209.663 148.000 C 205.015 148.000,201.951 148.156,201.800 148.400 " stroke="none" fill="#f9f9f9" fill-rule="evenodd"></path></g></svg>